# xmcd CD database file
#
# Track frame offsets:
#	150
#	25937
#	67507
#	94387
#	125957
#	154845
#	168712
#	210102
#	248360
#	284792
#	316720
#
# Disc length: 4407 seconds
#
# Revision: 0
# Processed by: cddbd v1.4PL0 Copyright (c) Steve Scherf et al.
# Submitted via: CDex 1.50beta9
#
DISCID=9211350b
DTITLE=John Scofield - LIVE '81
DYEAR=1981
DGENRE=Jazz
TTITLE0=Why D'You Do It
TTITLE1=Yawn
TTITLE2=Dr. Jackle
TTITLE3=Jean The Bean
TTITLE4=Rags to Riches
TTITLE5=Shinola
TTITLE6=Holidays
TTITLE7=Last Week
TTITLE8=Miss Directions
TTITLE9=Our Like A Light
TTITLE10=Melinda
EXTD=YEAR: 1981
EXTT0=
EXTT1=
EXTT2=
EXTT3=
EXTT4=
EXTT5=
EXTT6=
EXTT7=
EXTT8=
EXTT9=
EXTT10=
PLAYORDER=
